<svg viewBox="0 0 118 40" fill="none" xmlns="http://www.w3.org/2000/svg"><path fill-rule="evenodd" clip-rule="evenodd" d="M39.273 39.073c7.843 0 14.201-6.253 14.201-13.966 0-7.714-6.358-13.967-14.201-13.967-7.844 0-14.202 6.253-14.202 13.967 0 7.713 6.358 13.966 14.202 13.966Zm-9.076-5.76c3.37 3.697 10.139 3.011 15.116-1.533 4.977-4.544 6.28-11.226 2.908-14.924-3.37-3.698-10.139-3.011-15.116 1.533-4.978 4.544-6.28 11.226-2.908 14.923Z" fill="#303030"/><path fill-rule="evenodd" clip-rule="evenodd" d="M70.14 3.495c-2.622-.215-4.58.234-5.872 1.348-1.257 1.114-1.886 2.965-1.886 5.552v1.079h7.757v3.45h-7.757v23.502h-3.555V14.923h-4.579v-3.45h4.579v-1.078c0-3.521.97-6.18 2.909-7.978C63.71.585 66.512-.206 70.139.046v3.45Zm-48.7 34.931h4.955L7.757 19.02 25.857.692H20.9L3.77 17.942V.692H0v37.734h3.77V20.152l17.67 18.274Zm71.326-23.34c-2.442-2.84-5.657-4.26-9.643-4.26-4.13 0-7.505 1.348-10.127 4.043-2.621 2.696-3.932 6.056-3.932 10.08 0 4.098 1.329 7.476 3.986 10.135 2.657 2.66 6.105 3.99 10.343 3.99 2.621 0 4.955-.558 7.002-1.672 2.047-1.114 3.663-2.623 4.848-4.528L92.12 31.04c-.754 1.366-1.885 2.48-3.393 3.342-1.473.827-3.233 1.24-5.28 1.24-2.872 0-5.296-.79-7.272-2.372-1.939-1.617-3.088-3.791-3.447-6.522h23.648c.072-.72.107-1.276.107-1.671 0-3.846-1.239-7.17-3.716-9.973Zm-16.7 1.724c1.904-1.689 4.256-2.533 7.057-2.533 2.442 0 4.579.79 6.41 2.371 1.832 1.582 2.927 3.792 3.286 6.63H72.727c.359-2.659 1.472-4.815 3.34-6.468Zm26.205 1.725c0 1.222.538 2.192 1.616 2.91 1.077.72 2.388 1.277 3.932 1.672a74.96 74.96 0 0 1 4.632 1.348c1.545.467 2.856 1.275 3.933 2.425 1.077 1.114 1.616 2.588 1.616 4.42 0 2.3-.916 4.17-2.747 5.607-1.796 1.437-4.13 2.156-7.003 2.156-2.586 0-4.794-.575-6.626-1.725-1.795-1.15-3.052-2.641-3.77-4.474l3.016-1.779c.503 1.402 1.401 2.516 2.693 3.342 1.329.79 2.891 1.186 4.687 1.186 1.759 0 3.232-.341 4.417-1.024 1.185-.719 1.778-1.815 1.778-3.288 0-1.222-.539-2.193-1.616-2.911-1.078-.719-2.389-1.276-3.933-1.671a111.5 111.5 0 0 1-4.632-1.294c-1.545-.503-2.855-1.312-3.933-2.426-1.077-1.15-1.616-2.641-1.616-4.474 0-2.192.862-4.025 2.586-5.498 1.76-1.474 3.968-2.21 6.626-2.21 2.19 0 4.112.503 5.763 1.509 1.652.97 2.873 2.3 3.663 3.989l-2.962 1.725c-1.042-2.516-3.196-3.774-6.464-3.774-1.545 0-2.873.378-3.987 1.133-1.113.718-1.669 1.76-1.669 3.126Z" fill="#303030"/></svg>