<svg width="30" height="39" viewBox="0 0 30 39" fill="none" xmlns="http://www.w3.org/2000/svg">
<path d="M14.5013 0C6.50677 0 0.00195312 6.44119 0.00195312 14.3584C0.00195312 16.4235 0.428809 18.3952 1.27003 20.2192C4.89528 28.0746 11.8459 36.3681 13.8903 38.7226C14.0435 38.8986 14.2668 39 14.5018 39C14.7367 39 14.96 38.8986 15.1132 38.7226C17.1568 36.3685 24.1074 28.0754 27.7339 20.2192C28.5755 18.3952 29.002 16.4235 29.002 14.3584C29.0011 6.44119 22.4963 0 14.5013 0ZM14.5013 21.8162C10.3485 21.8162 6.9695 18.4702 6.9695 14.358C6.9695 10.2453 10.3485 6.8994 14.5013 6.8994C18.6542 6.8994 22.0332 10.2453 22.0332 14.358C22.0336 18.4702 18.6546 21.8162 14.5013 21.8162Z" fill="#E55938"/>
</svg>
