<svg width="0" height="0" class="hidden">
  <symbol xmlns="http://www.w3.org/2000/svg" viewBox="0 0 118 40" id="logo-main">
    <path fill-rule="evenodd" clip-rule="evenodd" d="M39.273 39.073c7.843 0 14.201-6.253 14.201-13.966 0-7.714-6.358-13.967-14.201-13.967-7.844 0-14.202 6.253-14.202 13.967 0 7.713 6.358 13.966 14.202 13.966Zm-9.076-5.76c3.37 3.697 10.139 3.011 15.116-1.533 4.977-4.544 6.28-11.226 2.908-14.924-3.37-3.698-10.139-3.011-15.116 1.533-4.978 4.544-6.28 11.226-2.908 14.923Z" ></path>
    <path fill-rule="evenodd" clip-rule="evenodd" d="M70.14 3.495c-2.622-.215-4.58.234-5.872 1.348-1.257 1.114-1.886 2.965-1.886 5.552v1.079h7.757v3.45h-7.757v23.502h-3.555V14.923h-4.579v-3.45h4.579v-1.078c0-3.521.97-6.18 2.909-7.978C63.71.585 66.512-.206 70.139.046v3.45Zm-48.7 34.931h4.955L7.757 19.02 25.857.692H20.9L3.77 17.942V.692H0v37.734h3.77V20.152l17.67 18.274Zm71.326-23.34c-2.442-2.84-5.657-4.26-9.643-4.26-4.13 0-7.505 1.348-10.127 4.043-2.621 2.696-3.932 6.056-3.932 10.08 0 4.098 1.329 7.476 3.986 10.135 2.657 2.66 6.105 3.99 10.343 3.99 2.621 0 4.955-.558 7.002-1.672 2.047-1.114 3.663-2.623 4.848-4.528L92.12 31.04c-.754 1.366-1.885 2.48-3.393 3.342-1.473.827-3.233 1.24-5.28 1.24-2.872 0-5.296-.79-7.272-2.372-1.939-1.617-3.088-3.791-3.447-6.522h23.648c.072-.72.107-1.276.107-1.671 0-3.846-1.239-7.17-3.716-9.973Zm-16.7 1.724c1.904-1.689 4.256-2.533 7.057-2.533 2.442 0 4.579.79 6.41 2.371 1.832 1.582 2.927 3.792 3.286 6.63H72.727c.359-2.659 1.472-4.815 3.34-6.468Zm26.205 1.725c0 1.222.538 2.192 1.616 2.91 1.077.72 2.388 1.277 3.932 1.672a74.96 74.96 0 0 1 4.632 1.348c1.545.467 2.856 1.275 3.933 2.425 1.077 1.114 1.616 2.588 1.616 4.42 0 2.3-.916 4.17-2.747 5.607-1.796 1.437-4.13 2.156-7.003 2.156-2.586 0-4.794-.575-6.626-1.725-1.795-1.15-3.052-2.641-3.77-4.474l3.016-1.779c.503 1.402 1.401 2.516 2.693 3.342 1.329.79 2.891 1.186 4.687 1.186 1.759 0 3.232-.341 4.417-1.024 1.185-.719 1.778-1.815 1.778-3.288 0-1.222-.539-2.193-1.616-2.911-1.078-.719-2.389-1.276-3.933-1.671a111.5 111.5 0 0 1-4.632-1.294c-1.545-.503-2.855-1.312-3.933-2.426-1.077-1.15-1.616-2.641-1.616-4.474 0-2.192.862-4.025 2.586-5.498 1.76-1.474 3.968-2.21 6.626-2.21 2.19 0 4.112.503 5.763 1.509 1.652.97 2.873 2.3 3.663 3.989l-2.962 1.725c-1.042-2.516-3.196-3.774-6.464-3.774-1.545 0-2.873.378-3.987 1.133-1.113.718-1.669 1.76-1.669 3.126Z" ></path>
  </symbol>
  <symbol xmlns="http://www.w3.org/2000/svg" viewBox="0 0 921 906" id="logo-short">
    <path fill-rule="evenodd" clip-rule="evenodd" d="M460.688 905.381c254.046 0 460-202.539 460-452.38 0-249.846-205.954-452.385-460-452.385-254.054 0-460 202.539-460 452.385 0 249.841 205.946 452.38 460 452.38ZM166.704 718.786c109.19 119.781 328.411 97.55 489.64-49.641 161.22-147.191 203.4-363.614 94.201-483.388-109.199-119.774-328.42-97.548-489.64 49.645-161.228 147.193-203.4 363.612-94.201 483.384Z" ></path>
  </symbol>
  <symbol xmlns="http://www.w3.org/2000/svg" viewBox="0 0 292 40" id="logo-wide">
    <path fill-rule="evenodd" clip-rule="evenodd" d="M39.273 39.073c7.843 0 14.201-6.253 14.201-13.966 0-7.714-6.358-13.967-14.201-13.967-7.844 0-14.202 6.253-14.202 13.967 0 7.713 6.358 13.966 14.202 13.966Zm-9.076-5.76c3.37 3.697 10.139 3.011 15.116-1.533 4.977-4.544 6.28-11.226 2.908-14.924-3.37-3.698-10.139-3.011-15.116 1.533-4.978 4.544-6.28 11.226-2.908 14.923Z" ></path>
    <path fill-rule="evenodd" clip-rule="evenodd" d="M70.14 3.495c-2.622-.215-4.58.234-5.872 1.348-1.257 1.114-1.886 2.965-1.886 5.552v1.079h7.757v3.45h-7.757v23.502h-3.555V14.923h-4.579v-3.45h4.579v-1.078c0-3.521.97-6.18 2.909-7.978C63.71.585 66.512-.206 70.139.046v3.45Zm-48.7 34.931h4.955L7.757 19.02 25.857.692H20.9L3.77 17.942V.692H0v37.734h3.77V20.152l17.67 18.274Zm71.326-23.34c-2.442-2.84-5.657-4.26-9.643-4.26-4.13 0-7.505 1.348-10.127 4.043-2.621 2.696-3.932 6.056-3.932 10.08 0 4.098 1.329 7.476 3.986 10.135 2.657 2.66 6.105 3.99 10.343 3.99 2.621 0 4.955-.558 7.002-1.672 2.047-1.114 3.663-2.623 4.848-4.528L92.12 31.04c-.754 1.366-1.885 2.48-3.393 3.342-1.473.827-3.233 1.24-5.28 1.24-2.872 0-5.296-.79-7.272-2.372-1.939-1.617-3.088-3.791-3.447-6.522h23.648c.072-.72.107-1.276.107-1.671 0-3.846-1.239-7.17-3.716-9.973Zm-16.7 1.724c1.904-1.689 4.256-2.533 7.057-2.533 2.442 0 4.579.79 6.41 2.371 1.832 1.582 2.927 3.792 3.286 6.63H72.727c.359-2.659 1.472-4.815 3.34-6.468Zm26.205 1.725c0 1.222.538 2.192 1.616 2.91 1.077.72 2.388 1.277 3.932 1.672a74.96 74.96 0 0 1 4.632 1.348c1.545.467 2.856 1.275 3.933 2.425 1.077 1.114 1.616 2.588 1.616 4.42 0 2.3-.916 4.17-2.747 5.607-1.796 1.437-4.13 2.156-7.003 2.156-2.586 0-4.794-.575-6.626-1.725-1.795-1.15-3.052-2.641-3.77-4.474l3.016-1.779c.503 1.402 1.401 2.516 2.693 3.342 1.329.79 2.891 1.186 4.687 1.186 1.759 0 3.232-.341 4.417-1.024 1.185-.719 1.778-1.815 1.778-3.288 0-1.222-.539-2.193-1.616-2.911-1.078-.719-2.389-1.276-3.933-1.671a111.5 111.5 0 0 1-4.632-1.294c-1.545-.503-2.855-1.312-3.933-2.426-1.077-1.15-1.616-2.641-1.616-4.474 0-2.192.862-4.025 2.586-5.498 1.76-1.474 3.968-2.21 6.626-2.21 2.19 0 4.112.503 5.763 1.509 1.652.97 2.873 2.3 3.663 3.989l-2.962 1.725c-1.042-2.516-3.196-3.774-6.464-3.774-1.545 0-2.873.378-3.987 1.133-1.113.718-1.669 1.76-1.669 3.126Z" ></path>
    <path d="M135.532 9.057v-.673l2.187-2.232c.585-.584.877-1.086.877-1.505 0-.348-.107-.62-.319-.814a1.111 1.111 0 0 0-.779-.292c-.585 0-1.01.277-1.275.832l-.691-.407c.195-.402.464-.706.806-.912.348-.207.732-.31 1.151-.31.519 0 .971.17 1.355.513.383.343.575.803.575 1.381 0 .626-.369 1.308-1.107 2.046l-1.584 1.576h2.806v.797h-4.002ZM144.347 8.295c-.419.585-1.006.877-1.762.877-.755 0-1.343-.292-1.762-.877-.419-.584-.628-1.363-.628-2.337 0-.974.209-1.753.628-2.338.419-.584 1.007-.876 1.762-.876.756 0 1.343.292 1.762.876.419.585.629 1.364.629 2.338s-.21 1.753-.629 2.337Zm-2.922-.558c.272.42.658.629 1.16.629.502 0 .889-.21 1.16-.629.278-.419.416-1.012.416-1.78 0-.767-.138-1.36-.416-1.779-.271-.425-.658-.637-1.16-.637-.502 0-.888.21-1.16.628-.271.42-.407 1.015-.407 1.789 0 .767.136 1.36.407 1.78ZM149.924 8.295c-.419.585-1.006.877-1.762.877-.755 0-1.343-.292-1.762-.877-.419-.584-.628-1.363-.628-2.337 0-.974.209-1.753.628-2.338.419-.584 1.007-.876 1.762-.876.756 0 1.343.292 1.762.876.419.585.629 1.364.629 2.338s-.21 1.753-.629 2.337Zm-2.922-.558c.272.42.659.629 1.16.629.502 0 .889-.21 1.16-.629.278-.419.416-1.012.416-1.78 0-.767-.138-1.36-.416-1.779-.271-.425-.658-.637-1.16-.637-.501 0-.888.21-1.16.628-.271.42-.407 1.015-.407 1.789 0 .767.136 1.36.407 1.78ZM155.466 4.824c0 .478-.127.895-.381 1.249h.009l-2.001 2.984h-.93l1.47-2.17c-.13.012-.23.018-.301.018-.626 0-1.139-.192-1.541-.575-.395-.39-.593-.892-.593-1.506s.198-1.112.593-1.496c.402-.39.915-.584 1.541-.584.626 0 1.136.194 1.532.584.401.384.602.882.602 1.496Zm-3.09-.938c-.242.236-.363.549-.363.938 0 .39.121.706.363.948.248.236.566.354.956.354s.705-.118.947-.354c.248-.242.372-.558.372-.948 0-.39-.121-.702-.363-.938s-.561-.354-.956-.354c-.39 0-.708.118-.956.354ZM127.535 8.566c-.76 0-1.391-.234-1.895-.701a2.316 2.316 0 0 1-.756-1.758c0-.699.252-1.281.756-1.75.504-.473 1.135-.71 1.895-.71.497 0 .944.112 1.34.337.397.218.693.514.887.888l-.735.393a1.425 1.425 0 0 0-.595-.598 1.776 1.776 0 0 0-.897-.225c-.504 0-.928.16-1.27.477a1.568 1.568 0 0 0-.504 1.188c0 .467.168.86.504 1.178.342.318.766.477 1.27.477.336 0 .638-.072.907-.215.269-.15.474-.35.615-.599l.746.402a2.391 2.391 0 0 1-.928.889 2.77 2.77 0 0 1-1.34.327Z" ></path>
    <path fill-rule="evenodd" clip-rule="evenodd" d="M127.344 10.388a4.28 4.28 0 1 0 0-8.56 4.28 4.28 0 0 0 0 8.56Zm0 .64a4.92 4.92 0 1 0 0-9.84 4.92 4.92 0 0 0 0 9.84Z" ></path>
    <path d="m167.53 1.224 1.387.505-13.624 37.432-1.387-.505L167.53 1.224ZM206.425 35.505c-.827.834-1.838 1.25-3.034 1.25-1.197 0-2.208-.416-3.034-1.25-.827-.835-1.24-1.846-1.24-3.034 0-1.197.413-2.208 1.24-3.034.826-.835 1.837-1.252 3.034-1.252 1.196 0 2.207.417 3.034 1.252.834.826 1.251 1.837 1.251 3.034 0 1.188-.417 2.2-1.251 3.034Zm-5.313-.744c.614.614 1.374.92 2.279.92.905 0 1.66-.306 2.266-.92.614-.622.921-1.385.921-2.29 0-.913-.307-1.677-.921-2.29-.606-.623-1.361-.933-2.266-.933s-1.665.31-2.279.932c-.606.614-.909 1.378-.909 2.29 0 .906.303 1.67.909 2.29ZM212.101 31.585c.716 0 1.322.244 1.818.732.496.48.744 1.07.744 1.77 0 .717-.248 1.315-.744 1.795-.488.48-1.094.72-1.818.72h-3.105V28.34h4.958v1.039h-3.86v2.207h2.007Zm0 3.99c.409 0 .755-.141 1.039-.425.291-.283.437-.637.437-1.062 0-.417-.146-.767-.437-1.05a1.415 1.415 0 0 0-1.039-.426h-2.007v2.963h2.007ZM220.267 28.339h1.11l-2.657 6.304c-.299.708-.68 1.224-1.145 1.546-.464.315-1.031.453-1.7.413v-1.015c.457.047.827-.02 1.11-.2.283-.181.519-.492.708-.933l.083-.189-2.798-5.926h1.11l2.196 4.722 1.983-4.722ZM226.926 28.339h1.098v8.264h-1.098v-3.33a4.67 4.67 0 0 1-2.031.46c-.802 0-1.452-.224-1.947-.672-.496-.457-.744-1.047-.744-1.771v-2.951h1.098v2.88c0 .449.141.807.425 1.075.283.267.677.4 1.18.4.709 0 1.382-.153 2.019-.46V28.34ZM230.892 35.564h3.837v1.038h-4.935V28.34h4.876v1.039h-3.778v2.538h3.482v1.027h-3.482v2.62ZM241.166 28.339h1.086v8.264h-1.086v-3.72h-4.014v3.72h-1.098v-8.264h1.098v3.506h4.014v-3.506ZM249.156 36.602V30.44l-4.25 6.162h-.886V28.34h1.098v6.174l4.25-6.174h.886v8.264h-1.098ZM253.119 35.564h3.837v1.038h-4.935V28.34h4.876v1.039h-3.778v2.538h3.483v1.027h-3.483v2.62ZM206.425 23.7c-.827.834-1.838 1.251-3.034 1.251-1.197 0-2.208-.417-3.034-1.251-.827-.834-1.24-1.846-1.24-3.034 0-1.196.413-2.208 1.24-3.034.826-.834 1.837-1.251 3.034-1.251 1.196 0 2.207.417 3.034 1.251.834.826 1.251 1.838 1.251 3.034 0 1.188-.417 2.2-1.251 3.034Zm-5.313-.744c.614.614 1.374.921 2.279.921.905 0 1.66-.307 2.266-.92.614-.623.921-1.386.921-2.291 0-.913-.307-1.676-.921-2.29-.606-.622-1.361-.933-2.266-.933s-1.665.311-2.279.933c-.606.614-.909 1.377-.909 2.29 0 .905.303 1.668.909 2.29ZM212.101 19.78c.716 0 1.322.245 1.818.732.496.48.744 1.07.744 1.771 0 .716-.248 1.315-.744 1.795-.488.48-1.094.72-1.818.72h-3.105v-8.264h4.958v1.039h-3.86v2.208h2.007Zm0 3.99c.409 0 .755-.14 1.039-.424.291-.284.437-.638.437-1.063 0-.417-.146-.767-.437-1.05a1.415 1.415 0 0 0-1.039-.425h-2.007v2.963h2.007ZM222.715 23.7c-.826.834-1.838 1.251-3.034 1.251-1.196 0-2.208-.417-3.034-1.251-.826-.834-1.24-1.846-1.24-3.034 0-1.196.414-2.208 1.24-3.034.826-.834 1.838-1.251 3.034-1.251 1.196 0 2.208.417 3.034 1.251.834.826 1.251 1.838 1.251 3.034 0 1.188-.417 2.2-1.251 3.034Zm-5.313-.744c.614.614 1.374.921 2.279.921.905 0 1.661-.307 2.267-.92.613-.623.92-1.386.92-2.291 0-.913-.307-1.676-.92-2.29-.606-.622-1.362-.933-2.267-.933-.905 0-1.665.311-2.279.933-.606.614-.909 1.377-.909 2.29 0 .905.303 1.668.909 2.29ZM228.285 16.534c.763 0 1.397.256 1.9.767.512.504.768 1.134.768 1.89 0 .747-.256 1.377-.768 1.888-.503.512-1.137.767-1.9.767h-1.901v2.952h-1.098v-8.264h2.999Zm0 4.286c.456 0 .834-.154 1.133-.46.299-.316.449-.705.449-1.17 0-.472-.15-.862-.449-1.168-.299-.307-.677-.46-1.133-.46h-1.901v3.258h1.901ZM236.615 16.534h1.109l-2.656 6.304c-.299.709-.681 1.224-1.145 1.547-.464.314-1.031.452-1.7.413v-1.015c.456.047.826-.02 1.11-.201.283-.181.519-.492.708-.933l.083-.189-2.798-5.926h1.109l2.196 4.722 1.984-4.722ZM244.128 23.759h.885v2.62h-1.098v-1.581h-5.454v1.582h-1.098v-2.621h.72c.512-.637.768-1.605.768-2.904v-4.32h5.277v7.224Zm-4.805 0h3.707v-6.198h-3.081v3.317c0 1.252-.209 2.212-.626 2.881ZM253.024 23.7c-.826.834-1.838 1.251-3.034 1.251-1.196 0-2.208-.417-3.034-1.251-.826-.834-1.24-1.846-1.24-3.034 0-1.196.414-2.208 1.24-3.034.826-.834 1.838-1.251 3.034-1.251 1.196 0 2.208.417 3.034 1.251.834.826 1.251 1.838 1.251 3.034 0 1.188-.417 2.2-1.251 3.034Zm-5.312-.744c.613.614 1.373.921 2.278.921s1.661-.307 2.267-.92c.614-.623.92-1.386.92-2.291 0-.913-.306-1.676-.92-2.29-.606-.622-1.362-.933-2.267-.933-.905 0-1.665.311-2.278.933-.606.614-.909 1.377-.909 2.29 0 .905.303 1.668.909 2.29ZM260.317 20.512c.378.181.677.441.898.78.228.338.342.728.342 1.168 0 .662-.232 1.216-.696 1.665-.465.449-1.031.673-1.7.673h-3.566v-8.264h3.306c.645 0 1.192.216 1.641.65.448.432.673.967.673 1.605 0 .732-.299 1.306-.898 1.723Zm-1.416-2.95h-2.208v2.525h2.208c.346 0 .637-.122.873-.365.237-.244.355-.544.355-.898 0-.346-.122-.641-.366-.885a1.138 1.138 0 0 0-.862-.378Zm.26 6.209c.369 0 .68-.13.932-.39a1.32 1.32 0 0 0 .378-.956c0-.37-.13-.685-.39-.944a1.231 1.231 0 0 0-.92-.39h-2.468v2.68h2.468ZM268.301 24.798l-.673-1.854h-3.719l-.673 1.854h-1.169l3.082-8.264h1.239l3.081 8.264h-1.168Zm-4.014-2.88h2.963l-1.487-4.073-1.476 4.072ZM275.556 16.534h1.086v8.264h-1.086v-3.719h-4.014v3.719h-1.098v-8.264h1.098v3.506h4.014v-3.506ZM283.546 24.798v-6.162l-4.25 6.162h-.885v-8.264h1.098v6.174l4.25-6.174h.885v8.264h-1.098ZM287.51 23.759h3.836v1.039h-4.934v-8.264h4.875v1.039h-3.777v2.538h3.482v1.027h-3.482v2.621ZM205.563 12.993h-1.346l-3.565-3.966v3.966h-1.098V4.73h1.098v3.73l3.447-3.73h1.346l-3.648 4.013 3.766 4.25Z" ></path>
    <path d="M212.708 11.895c-.827.835-1.838 1.252-3.034 1.252-1.197 0-2.208-.417-3.034-1.252-.827-.834-1.24-1.845-1.24-3.034 0-1.196.413-2.207 1.24-3.034.826-.834 1.837-1.25 3.034-1.25 1.196 0 2.207.416 3.034 1.25.834.827 1.251 1.838 1.251 3.034 0 1.189-.417 2.2-1.251 3.034Zm-5.313-.743c.614.614 1.374.92 2.279.92.905 0 1.66-.306 2.266-.92.614-.622.921-1.385.921-2.29 0-.914-.307-1.677-.921-2.29-.606-.623-1.361-.933-2.266-.933s-1.665.31-2.279.932c-.606.614-.909 1.377-.909 2.29 0 .906.303 1.669.909 2.29ZM222.551 6.571c.716.567 1.074 1.33 1.074 2.29s-.358 1.724-1.074 2.29c-.708.567-1.657.89-2.845.969v.932h-1.074v-.932c-1.181-.079-2.129-.402-2.845-.968-.709-.567-1.063-1.33-1.063-2.29s.354-1.724 1.063-2.29c.716-.567 1.664-.89 2.845-.969V4.67h1.074v.933c1.188.079 2.137.402 2.845.968Zm-2.845 4.545c.889-.063 1.582-.28 2.078-.649.496-.378.743-.913.743-1.606 0-.692-.247-1.223-.743-1.593-.496-.378-1.189-.598-2.078-.661v4.51Zm-3.896-2.255c0 .685.248 1.216.744 1.594.496.37 1.188.586 2.078.65V6.606c-.89.063-1.582.283-2.078.66-.496.37-.744.902-.744 1.594ZM225.923 11.954h3.836v1.04h-4.934V4.73h4.875v1.038h-3.777v2.539h3.482v1.027h-3.482v2.62Z" ></path>
  </symbol>
  <symbol id="logo-sup" viewBox="0 0 34 11" xmlns="http://www.w3.org/2000/svg"><path d="M13.532 8.057v-.673l2.187-2.232c.585-.584.877-1.086.877-1.505 0-.348-.107-.62-.319-.814a1.11 1.11 0 0 0-.78-.292c-.583 0-1.008.277-1.274.832l-.69-.407c.194-.402.463-.706.805-.912.348-.207.732-.31 1.151-.31.52 0 .971.17 1.355.513.383.343.575.803.575 1.381 0 .626-.369 1.308-1.107 2.046L14.727 7.26h2.807v.797h-4.002ZM22.347 7.295c-.419.585-1.006.877-1.762.877-.755 0-1.343-.292-1.762-.877-.419-.584-.628-1.363-.628-2.337 0-.974.21-1.753.628-2.338.42-.584 1.007-.876 1.762-.876.756 0 1.343.292 1.762.876.42.585.629 1.364.629 2.338s-.21 1.753-.629 2.337Zm-2.922-.558c.272.42.659.629 1.16.629.502 0 .889-.21 1.16-.629.277-.419.416-1.012.416-1.78 0-.767-.139-1.36-.416-1.779-.271-.425-.658-.637-1.16-.637-.502 0-.888.21-1.16.628-.271.42-.407 1.015-.407 1.789 0 .767.136 1.36.407 1.78ZM27.924 7.295c-.419.585-1.006.877-1.762.877-.755 0-1.343-.292-1.762-.877-.419-.584-.628-1.363-.628-2.337 0-.974.21-1.753.628-2.338.42-.584 1.007-.876 1.762-.876.756 0 1.343.292 1.762.876.42.585.629 1.364.629 2.338s-.21 1.753-.629 2.337Zm-2.922-.558c.272.42.659.629 1.16.629.502 0 .889-.21 1.16-.629.277-.419.416-1.012.416-1.78 0-.767-.139-1.36-.416-1.779-.271-.425-.658-.637-1.16-.637-.502 0-.888.21-1.16.628-.271.42-.407 1.015-.407 1.789 0 .767.136 1.36.407 1.78ZM33.466 3.824c0 .478-.127.895-.38 1.249h.008l-2.001 2.984h-.93l1.47-2.17c-.13.012-.23.018-.301.018-.626 0-1.14-.192-1.54-.575-.396-.39-.594-.892-.594-1.506s.198-1.112.593-1.496c.402-.39.915-.584 1.541-.584.626 0 1.136.194 1.532.584.401.384.602.882.602 1.496Zm-3.09-.938c-.242.236-.363.549-.363.938 0 .39.12.706.363.948.248.236.566.354.956.354s.705-.118.947-.354c.248-.242.372-.558.372-.948 0-.39-.12-.702-.363-.938-.242-.236-.56-.354-.956-.354-.39 0-.708.118-.956.354ZM5.535 7.566c-.76 0-1.391-.234-1.895-.701a2.316 2.316 0 0 1-.756-1.758c0-.699.252-1.281.756-1.75.504-.473 1.135-.71 1.895-.71.497 0 .944.112 1.34.337.397.218.693.514.887.888l-.735.393a1.424 1.424 0 0 0-.595-.598 1.777 1.777 0 0 0-.897-.225c-.504 0-.928.16-1.27.477a1.568 1.568 0 0 0-.504 1.188c0 .467.168.86.504 1.178.342.318.766.477 1.27.477.336 0 .638-.072.907-.215.269-.15.474-.35.615-.599l.746.402a2.395 2.395 0 0 1-.928.889 2.77 2.77 0 0 1-1.34.327Z" /><path fill-rule="evenodd" clip-rule="evenodd" d="M5.344 9.388a4.28 4.28 0 1 0 0-8.56 4.28 4.28 0 0 0 0 8.56Zm0 .64a4.919 4.919 0 1 0 0-9.839 4.919 4.919 0 0 0 0 9.838Z" /></symbol>
  <symbol id="logo-copy" viewBox="0 0 234 40" xmlns="http://www.w3.org/2000/svg"><path d="M54.56 32.695V29.94l8.956-9.138c2.393-2.393 3.59-4.448 3.59-6.164 0-1.427-.435-2.538-1.306-3.336-.87-.798-1.934-1.197-3.19-1.197-2.394 0-4.134 1.136-5.222 3.409l-2.828-1.668c.797-1.644 1.897-2.889 3.3-3.735 1.425-.846 2.997-1.27 4.713-1.27 2.127 0 3.977.702 5.548 2.104 1.571 1.402 2.357 3.287 2.357 5.656 0 2.563-1.511 5.355-4.533 8.377l-6.49 6.454h11.494v3.263H54.56ZM89.572 29.577c-1.717 2.393-4.122 3.59-7.216 3.59-3.094 0-5.5-1.197-7.216-3.59-1.716-2.393-2.574-5.584-2.574-9.573 0-3.988.858-7.18 2.574-9.572 1.716-2.394 4.122-3.59 7.216-3.59 3.094 0 5.5 1.196 7.216 3.59 1.716 2.393 2.574 5.584 2.574 9.572 0 3.989-.858 7.18-2.574 9.573Zm-11.966-2.284c1.112 1.716 2.695 2.574 4.75 2.574s3.638-.858 4.75-2.574c1.136-1.717 1.704-4.146 1.704-7.289 0-3.142-.568-5.572-1.704-7.288-1.112-1.74-2.695-2.61-4.75-2.61s-3.638.857-4.75 2.574c-1.112 1.716-1.668 4.157-1.668 7.324 0 3.143.556 5.572 1.668 7.289ZM111.324 29.577c-1.717 2.393-4.122 3.59-7.216 3.59-3.094 0-5.5-1.197-7.216-3.59-1.716-2.393-2.575-5.584-2.575-9.573 0-3.988.859-7.18 2.575-9.572 1.716-2.394 4.122-3.59 7.216-3.59 3.094 0 5.499 1.196 7.216 3.59 1.716 2.393 2.574 5.584 2.574 9.572 0 3.989-.858 7.18-2.574 9.573Zm-11.966-2.284c1.112 1.716 2.695 2.574 4.75 2.574 2.054 0 3.638-.858 4.75-2.574 1.136-1.717 1.704-4.146 1.704-7.289 0-3.142-.568-5.572-1.704-7.288-1.112-1.74-2.696-2.61-4.75-2.61-2.055 0-3.638.857-4.75 2.574-1.112 1.716-1.668 4.157-1.668 7.324 0 3.143.556 5.572 1.668 7.289ZM132.93 15.363c0 1.958-.519 3.662-1.559 5.113h.036l-8.194 12.22h-3.808l6.019-8.884c-.531.048-.942.072-1.232.072-2.563 0-4.666-.785-6.31-2.357-1.619-1.595-2.429-3.65-2.429-6.164s.81-4.557 2.429-6.128c1.644-1.595 3.747-2.393 6.31-2.393 2.562 0 4.653.798 6.273 2.393 1.643 1.571 2.465 3.614 2.465 6.128Zm-12.654-3.844c-.992.967-1.487 2.248-1.487 3.844 0 1.595.495 2.889 1.487 3.88 1.015.967 2.32 1.45 3.916 1.45 1.595 0 2.888-.483 3.879-1.45 1.016-.991 1.523-2.285 1.523-3.88 0-1.595-.495-2.877-1.486-3.844-.991-.967-2.297-1.45-3.916-1.45-1.596 0-2.901.483-3.916 1.45ZM135.58 23.086v-3.045h21.938v3.045H135.58ZM160.451 32.695V29.94l8.956-9.138c2.393-2.393 3.59-4.448 3.59-6.164 0-1.427-.435-2.538-1.306-3.336-.87-.798-1.933-1.197-3.19-1.197-2.394 0-4.134 1.136-5.222 3.409l-2.828-1.668c.797-1.644 1.897-2.889 3.299-3.735 1.427-.846 2.998-1.27 4.714-1.27 2.128 0 3.977.702 5.548 2.104 1.571 1.402 2.357 3.287 2.357 5.656 0 2.563-1.511 5.355-4.533 8.377l-6.49 6.454h11.494v3.263h-16.389ZM195.463 29.577c-1.717 2.393-4.122 3.59-7.216 3.59-3.094 0-5.499-1.197-7.216-3.59-1.716-2.393-2.574-5.584-2.574-9.573 0-3.988.858-7.18 2.574-9.572 1.717-2.394 4.122-3.59 7.216-3.59 3.094 0 5.499 1.196 7.216 3.59 1.716 2.393 2.574 5.584 2.574 9.572 0 3.989-.858 7.18-2.574 9.573Zm-11.966-2.284c1.112 1.716 2.695 2.574 4.75 2.574s3.638-.858 4.75-2.574c1.136-1.717 1.704-4.146 1.704-7.289 0-3.142-.568-5.572-1.704-7.288-1.112-1.74-2.695-2.61-4.75-2.61s-3.638.857-4.75 2.574c-1.112 1.716-1.668 4.157-1.668 7.324 0 3.143.556 5.572 1.668 7.289ZM199.422 32.695V29.94l8.956-9.138c2.393-2.393 3.59-4.448 3.59-6.164 0-1.427-.435-2.538-1.305-3.336-.871-.798-1.934-1.197-3.191-1.197-2.393 0-4.134 1.136-5.222 3.409l-2.828-1.668c.798-1.644 1.898-2.889 3.3-3.735 1.426-.846 2.997-1.27 4.713-1.27 2.128 0 3.977.702 5.548 2.104 1.572 1.402 2.357 3.287 2.357 5.656 0 2.563-1.511 5.355-4.532 8.377l-6.491 6.454h11.495v3.263h-16.39ZM217.456 32.695V29.94l8.956-9.138c2.393-2.393 3.59-4.448 3.59-6.164 0-1.427-.435-2.538-1.306-3.336-.87-.798-1.933-1.197-3.19-1.197-2.394 0-4.134 1.136-5.222 3.409l-2.828-1.668c.797-1.644 1.897-2.889 3.299-3.735 1.427-.846 2.998-1.27 4.714-1.27 2.128 0 3.977.702 5.548 2.104 1.571 1.402 2.357 3.287 2.357 5.656 0 2.563-1.511 5.355-4.533 8.377l-6.49 6.454h11.494v3.263h-16.389ZM20.485 29.315c-3.018 0-5.528-.93-7.53-2.788-2.003-1.882-3.005-4.211-3.005-6.986 0-2.775 1.002-5.091 3.004-6.95 2.003-1.882 4.513-2.823 7.53-2.823 1.977 0 3.753.445 5.328 1.337 1.576.867 2.75 2.044 3.525 3.53l-2.924 1.562c-.507-.991-1.295-1.784-2.363-2.379-1.042-.594-2.23-.892-3.565-.892-2.003 0-3.685.632-5.047 1.896-1.335 1.263-2.003 2.836-2.003 4.72 0 1.857.668 3.418 2.003 4.681 1.362 1.264 3.044 1.896 5.047 1.896 1.335 0 2.537-.285 3.605-.855 1.068-.595 1.882-1.387 2.443-2.378l2.964 1.598c-.854 1.461-2.083 2.638-3.685 3.53-1.602.867-3.378 1.3-5.327 1.3Z" /><path fill-rule="evenodd" clip-rule="evenodd" d="M19.728 36.553c9.392 0 17.005-7.614 17.005-17.006S29.12 2.541 19.729 2.541 2.722 10.155 2.722 19.547s7.614 17.006 17.006 17.006Zm0 2.541c10.795 0 19.547-8.752 19.547-19.547C39.275 8.751 30.523 0 19.728 0 8.932 0 .18 8.751.18 19.547c0 10.796 8.751 19.547 19.547 19.547Z" /></symbol>
</svg>